<?xml version="1.0" encoding="UTF-8" standalone="no"?>
<!-- Created with Inkscape (http://www.inkscape.org/) -->

<svg
   version="1.1"
   id="svg1"
   width="696.47864"
   height="444.06174"
   viewBox="0 0 696.47864 444.06174"
   sodipodi:docname="CAMCAD logo.svg"
   inkscape:version="1.4.2 (ebf0e940, 2025-05-08)"
   inkscape:export-filename="CAMCAD logo.png"
   inkscape:export-xdpi="96"
   inkscape:export-ydpi="96"
   xml:space="preserve"
   xmlns:inkscape="http://www.inkscape.org/namespaces/inkscape"
   xmlns:sodipodi="http://sodipodi.sourceforge.net/DTD/sodipodi-0.dtd"
   xmlns="http://www.w3.org/2000/svg"
   xmlns:svg="http://www.w3.org/2000/svg"><sodipodi:namedview
     id="namedview1"
     pagecolor="#ffffff"
     bordercolor="#000000"
     borderopacity="0.25"
     inkscape:showpageshadow="2"
     inkscape:pageopacity="0.0"
     inkscape:pagecheckerboard="0"
     inkscape:deskcolor="#d1d1d1"
     inkscape:zoom="1.4142136"
     inkscape:cx="328.4511"
     inkscape:cy="175.00893"
     inkscape:window-width="2560"
     inkscape:window-height="1294"
     inkscape:window-x="0"
     inkscape:window-y="31"
     inkscape:window-maximized="1"
     inkscape:current-layer="g1" /><g
     inkscape:groupmode="layer"
     inkscape:label="Image"
     id="g1"
     transform="translate(-1.7670036,0.21558233)"><path
       style="fill:#1f1b13;stroke:none"
       d="m 1.7692036,5.846156 c 9.0342004,4.00452 18.5564004,5.73267 28.0000004,8.42749 12.9355,3.69128 25.6086,8.36414 39,10.27234 20.0115,2.85156 42.176396,-0.19324 61.999996,-3.12732 25.3453,-3.75134 49.9918,-15.57959 76,-13.47913 13.4507,1.08631 25.7101,11.56128 37,18.05628 6.3965,3.67981 12.525,7.82837 19,11.37268 7.3578,4.02759 15.4866,7.37976 21.8295,12.99231 6.79,6.00818 9.5941,14.96069 14.2353,22.48535 8.258,13.38818 20.4394,26.71533 24.9352,42.000004 -7.6995,0.0637 -15.3228,1.54041 -23,1.96448 -2.7394,0.15136 -6.3669,0.93628 -8.9607,-0.16199 -3.2662,-1.38293 -5.6069,-5.16235 -7.7893,-7.80249 -3.9106,-4.73071 -8.1256,-9.578864 -11.0618,-15.000004 -2.1331,-3.93872 -2.7174,-8.41077 -5.5825,-11.98145 -3.5887,-4.47241 -8.8048,-6.15588 -13.6057,-8.9298 -9.6626,-5.58289 -20.7042,-11.78809 -32,-12.91822 -7.4186,-0.74219 -14.6847,0.90418 -22,1.82947 v -1 c 3.6201,-1.64478 5.3502,-3.00159 6,-7 -9.5798,0.98779 -13.1132,9.5011 -17.6003,17 -4.1877,6.99841 -11.6465,19.53882 -10.1065,28 1.2284,6.748544 8.8388,12.218144 13.7068,16.423584 12.5146,10.81128 27.9761,20.00733 38.79,32.57715 5.0397,5.85791 16.0177,19.69092 12.0163,27.99536 -3.1759,6.59095 -9.443,7.36451 -15.8063,5.98926 -11.0649,-2.39123 -20.4308,-9.0741 -30,-14.78467 -11.3771,-6.78943 -23.2357,-15.36523 -36,-19.2771 -15.6748,-4.80383 -32.8918,-4.89062 -48,-11.35107 -17.157096,-7.33655 -30.325796,-20.81152 -45.999996,-30.57251 l -1,3 c -15.7277,-4.06897 -32.0714,-5.73059 -48,-8.80322 -6.1794,-1.192024 -15.3024004,-5.151374 -16.0000004,3.80322 l 4,-1 -2,2 v 1 l 45.0000004,7 20,3 5,4 10,8 h 2 l 5,5 18.999996,10 8,3 -1,1 19,2.90503 24,4.95679 13.0116,7.34814 2.1543,10.79004 0.8341,26 c -11.5908,-1.19373 -18.5719,-10.14746 -31,-4.6366 -20.6187,9.1427 -20.797,40.43824 -2,51.27393 7.4171,4.27563 17.7336,4.67212 25,-0.28931 2.6588,-1.81543 8.5277,-9.31726 11.8357,-4.9862 2.4177,3.16565 2.0751,8.87036 2.5879,12.63818 1.7102,12.56519 1.4971,25.40094 3.152,38 0.5301,4.03632 -0.6513,12.17828 3.0131,14.97223 3.6592,2.78992 11.2753,0.59112 15.4113,0.19751 10.9669,-1.0437 22.0419,-1.15741 33,-2.45526 3.7903,-0.44892 10.3029,-2.4383 13.848,-0.59717 2.3102,1.19977 2.7382,3.55402 2.1273,5.88348 -1.5671,5.97596 -4.9344,10.62799 -5.6882,16.99921 -2.0799,17.58148 15.9904,28.53485 31.7129,26.82642 16.8066,-1.82624 28.1071,-18.5578 23.1998,-34.82642 -1.2523,-4.15167 -11.8891,-13.83118 -7.672,-17.44214 4.3511,-3.72565 12.2326,-2.44415 17.4722,-2.57251 10.6163,-0.26007 21.4152,-2.05841 32,-2.98535 3.7417,-0.3277 13.4805,0.33795 15.9723,-2.74231 2.8685,-3.5459 0.2241,-12.09369 -0.01,-16.25769 -0.6316,-11.34021 -2.2732,-22.66431 -3.054,-34 -0.3424,-4.97095 -2.1808,-11.03125 -0.3465,-15.90125 2.1837,-5.79785 9.7994,0.38355 13.436,1.65748 9.0947,3.18591 18.6426,1.49401 25.6991,-5.22388 15.4525,-14.71106 8.6521,-44.92163 -12.6991,-49.99988 -12.026,-2.86035 -18.9598,6.55566 -29,10.46753 -3.582,-13.84534 -4.3126,-29.72583 -4.9607,-44 -0.306,-6.74084 0.4124,-16.68079 -2.6033,-22.85181 -3.1784,-6.50427 -12.0628,0.70777 -16.2231,-5.29638 -4.5941,-6.63013 -7.6088,-14.848274 -11.7122,-21.851814 -4.2175,-7.19849 -9.4698,-13.75598 -13.6288,-21 -3.6124,-6.29224 -6.6417,-13.35608 -11.3896,-18.90662 -8.4629,-9.89343 -22.2982,-15.44543 -33.4823,-21.57104 -18.2744,-10.00903 -34.6881,-24.62695 -56,-27.23609 -15.8511,-1.94055 -32.9833,4.68274 -48,8.79322 -17.509,4.7926 -35.9818,7.03589 -54,8.75073 -9.098296,0.86597 -20.999296,1.7627 -29.999996,0.56641 -15.5255,-2.0636 -30.9164,-7.98352 -46,-12.02234 -6.6382,-1.77747 -20.7036004,-9.31336 -24.0000004,-0.37427 m 222.0021964,69 c -8.0167,-1.02087 -13.0786,6.77576 -19,11.07178 -5.6268,4.08227 -12.3042,5.54626 -19,6.92822 1.4906,-7.90698 4.082,-17.41858 11.1042,-22.40051 4.1333,-2.93238 10.1099,-2.35535 14.8958,-2.68897 13.7849,-0.96094 25.0231,3.54688 37,10.22913 4.262,2.37793 9.3364,4.52026 12.686,8.18603 5.6404,6.17286 2.0688,15.359744 2.3542,22.674324 0.3376,8.65332 2.0499,18.66785 4.388,27 2.4665,8.78955 5.9634,16.65686 5.5525,25.98535 -0.4846,11.00281 -20.0395,9.81714 -24.1814,1.90662 -2.8923,-5.52405 -5.2301,-11.60144 -4.6295,-17.89197 0.3868,-4.052 2.2512,-8.00049 2.4622,-12 0.2254,-4.2738 -3.3842,-7.05579 -4.318,-11 -1.5757,-6.65515 1.6643,-13.48889 -0.7137,-20 -2.2337,-6.116214 -7.1718,-11.389164 -11.611,-16.000004 -3.4795,-3.61401 -7.2931,-6.74597 -6.9893,-12 m -5,48.000004 -2.1643,-16 -11.8357,-13.000004 c 3.3248,-2.20227 9.8519,-8.50073 14,-7.53931 3.1162,0.72229 5.7164,4.27515 7.7145,6.53931 5.7539,6.52002 9.2889,11.133064 9.2855,20.000004 -9e-4,2.24121 0.4624,5.50171 -1.0277,7.39746 -2.7606,3.51221 -11.9773,2.59985 -15.9723,2.60254 m -9,-3 c -8.155,-4.54578 -15.6254,-11.37012 -21,-19 2.6289,-1.019414 6.0615,-3.129524 8.9607,-2.787114 8.6603,1.02283 12.0196,14.931644 12.0393,21.787114 m 61,-14 11,13 -9,3 -2,-16 m 71,14 c 0,16.19092 1.3091,32.94385 3.4244,49 0.7653,5.80835 0.2801,13.59326 5.6845,17.39587 6.8686,4.83289 13.9862,-4.00842 19.8911,-6.39441 14.1719,-5.72644 25.7954,6.49305 26.8148,19.99854 0.2586,3.42566 -0.5127,6.79932 -1.6913,10 -3.749,10.18103 -12.507,15.31628 -23.1235,12.01086 -7.7156,-2.40222 -15.722,-9.9519 -22.3179,-0.5719 -3.0783,4.37781 -0.1184,13.61414 0.2284,18.56104 1.1489,16.39014 3.0895,32.53461 3.0895,49 l -31,1 c 0,-10.44684 -2.4395,-21.65332 -1.2585,-32 0.627,-5.49463 6.8925,-8.92798 5.7315,-15 -2.0643,-10.79614 -18.3022,-11.9646 -21.0248,-0.99927 -1.9323,7.78296 5.5381,9.42151 7.9484,15.18372 2.5208,6.0263 1.1545,15.31958 1.7732,21.81555 0.2827,2.96869 1.6069,6.82098 0.2261,9.68286 -1.348,2.79389 -5.736,2.83814 -8.3959,3.16205 -6.3683,0.77551 -17.2272,0.0251 -20.1057,7.19904 -2.9746,7.41339 3.5724,11.32623 6.6891,16.9707 5.376,9.73608 2.6971,20.94696 -6.5841,27.01929 -2.6877,1.75836 -5.8044,3.26605 -8.9993,3.75311 -3.1696,0.48321 -6.879,0.42407 -10,-0.31946 -2.5295,-0.6026 -4.8783,-1.77869 -6.9993,-3.26776 -1.7367,-1.2193 -3.3825,-2.63251 -4.773,-4.23993 -9.3571,-10.81708 1.0243,-19.18945 2.5546,-29.9599 1.5313,-10.77679 -8.4079,-12.99445 -16.7823,-13 -0.082,-9.93451 -3.4823,-21.09192 -1.8518,-30.91052 0.7832,-4.71637 6.0557,-7.07508 6.1782,-12.08948 0.1069,-4.37573 -3.527,-8.97876 -7.3303,-10.80627 -7.8806,-3.78675 -11.2993,5.28833 -17.2052,7.65808 -4.0123,1.60986 -8.5909,0.9497 -12.7909,1.23767 -7.3822,0.5061 -14.5745,0.91052 -22,0.91052 -7e-4,-6.67419 0.4944,-17.38818 -8.0039,-19.33105 -6.5165,-1.48987 -11.646,6.37695 -16.9961,8.6289 -14.5447,6.12219 -27.3573,-5.89343 -27.7407,-20.29785 -0.3421,-12.84619 10.5221,-24.46191 23.7407,-21.60962 6.426,1.3866 13.2277,8.49097 19.8911,3.86731 7.4802,-5.19043 3.288,-17.80432 3.288,-25.25769 0,-3.00049 -0.60397,-6.46998 -0.47477,-9.47596 5.0498,1.14478 9.92066,4.15331 14.24759,7.89423 l 17.04808,7.82709 6.32212,2.90368 c 9.7014,1.41501 21.29358,7.20545 28.14538,-4.1892 1.653,-2.74878 2.5451,-5.9314 3.5325,-8.95984 4.9453,1.60864 9.6975,3.43225 15,2.81482 12.9359,-1.50623 24.8479,-13.32983 23.9027,-26.81482 -0.6023,-8.59375 -7.3302,-14.24097 -9.9027,-22 7.8179,-6.48572 19.4569,-3.72791 29,-6 0.3638,17.6377 4.8488,35.34143 4.4275,53 -0.1408,5.89941 -7.2018,8.901 -6.6806,15 0.5395,6.31067 8.2382,11.39453 14.2524,9.24304 4.9181,-1.7594 8.5977,-7.03491 7.2614,-12.24231 -1.2771,-4.97668 -6.4209,-7.19568 -7.8309,-12.01538 -1.5925,-5.44372 -1.0688,-11.41186 -1.5996,-16.98535 -1.144,-12.01294 -2.3157,-24.01648 -3.8302,-36 l 27,-2 m -102,14 -5,6 h -1 c -5.91752,-5.25608 1.25831,1.4649 -11,-9 5.6051,-2.67969 14.505,-3.78601 17,3 m 36,-1 c 2.9241,6.36479 7.61609,12.17711 8.5309,19.1698 1.915,7.22938 -3.29252,9.00463 -3.5309,8.8302 l -3.8596,-17 -1.1404,-11 m -51,19.74695 c -5.2034,1.89026 -15.5948,12.62097 -13.3418,18.92431 2.416,6.75928 17.281,10.80384 23.3379,8.31946 10.0398,-4.11804 6.6414,-14.01819 2.0386,-20.98999 -2.6497,-4.01343 -6.834,-8.14306 -12.0347,-6.25378 m 2.9854,5.20056 c 7.7774,0.21313 15.5609,17.79773 3.0146,17.96838 -3.901,0.0531 -9.9307,-1.37085 -11.9321,-5.12964 -2.5667,-4.82019 3.8573,-12.97741 8.9175,-12.83874 m 91.0146,26.05249 1.71051,0.71826 1.28949,2.28174 c 0.034,0.91296 0.3556,2.1604 -0.033,3.10181 -3.0374,7.36999 -12.5378,0.42407 -6.4398,-5.0741 0.9697,-0.87427 2.2874,-0.82666 3.4723,-1.02771 m 2.0005,1 v 0 m -165.68151,31.61765 0.29077,5.7563 c 24.03936,-2.09811 45.624,-2.23744 68.39074,-4.54376 6.6747,-0.64587 13.3103,-1.43982 20,-1.91895 2.9581,-0.21191 6.0341,-1.15417 8.8302,0.27857 12.0088,6.15332 10.4592,19.39648 11.2593,30.81018 1.85839,16.29267 0.90602,32.95927 4.26627,49.00962 l 7.32692,-1.16347 c 0.37019,-21.88518 -4.59849,-32.49746 -6.59239,-64.84615 -0.4233,-6.86829 3.882,-7.6427 6.1674,-13.10425 2.1695,-5.18481 0.141,-13.86096 -5.3518,-16.15344 -10.161,-4.24085 -12.849,6.80066 -20.9098,8.11035 m 16.0039,-2.10107 c 5.735,-0.14356 5.9709,8.69445 0.025,8.87195 -5.8705,0.17529 -5.7011,-8.72986 -0.025,-8.87195 m 55.45793,41.28328 c -1.39849,0.47223 -2.45123,0.82964 -3.88763,0.48211 -10.2999,-2.49207 2.8554,-14.48364 4.7684,-3.54236 0.2404,1.37427 -0.26202,2.26101 -0.86755,3.07347 m -78.61538,3.11057 c 0,0 0.40278,4.89093 -3.87897,5.34135 -3.38389,0.35597 -6.9075,-1.82263 -6.0139,-5.34253 0.9806,-3.86267 9.47455,-3.74479 9.94575,0.001 m -16.90865,4.84135 c 3.3998,4.35822 9.81812,5.29237 10.06731,11.99519 l -0.0673,0.005 2,29 -31,3.28473 -12.3966,-1.02704 -1.6929,-11.25769 -2.9105,-29 36,-3"
       id="path1"
       sodipodi:nodetypes="csssssssscssssssscccsssssssssccsccccccccccccccccccssssssssssscsssssscssssscssssssssssssccscsssssssssssssccccsssscccsccccccssssssssccssssssssssssssscssssscsscsssccccscssccscsssscccccccccccccsssccsscccccscccccssssccsssccsccssccsscccccccccc" /><path
       style="fill:#ff9955;stroke-width:0.423077"
       d="m 336.74279,119.60352 c -7.96135,0.74411 -16.05669,0.94915 -23.94111,1.91144 -0.98848,2.0781 0.36673,4.9389 0.33061,7.32766 1.7008,14.18848 2.79088,28.42929 3.94486,42.66963 0.29732,4.92432 3.6975,8.66981 6.70312,12.23948 4.06984,4.84282 1.2306,12.94656 -4.7059,14.72754 -6.64723,2.51227 -15.53662,-4.16865 -13.17488,-11.40655 2.01543,-4.73634 6.84676,-8.50874 6.3255,-14.11276 -0.45347,-16.92437 -3.69522,-33.65528 -4.70508,-50.48993 -1.09229,-1.78581 -3.53405,-0.14234 -5.15625,-0.41234 -8.11973,0.87116 -17.11461,0.16942 -24.14844,5.029 -1.47604,2.15872 0.94009,4.62306 1.72856,6.59432 3.24857,5.80339 7.75125,11.61018 7.20812,18.6556 0.0398,8.93532 -6.56044,16.34891 -13.78223,20.8101 -6.74277,3.98065 -14.7824,3.46389 -21.94946,1.09098 -1.30847,-0.50494 -3.29645,-0.6596 -3.52192,1.18554 -1.68707,5.7634 -4.98675,12.31227 -11.49497,13.49962 -6.29309,0.84263 -12.49942,-1.12504 -18.57572,-2.53185 -8.34201,-3.1857 -16.43069,-7.04638 -24.28726,-11.27351 -4.35095,-2.75924 -8.73203,-6.39042 -13.96766,-6.99098 -1.50213,1.32074 -0.1349,4.09267 -0.37646,6.01013 0.22192,7.96029 2.42479,15.9161 0.66436,23.80882 -1.02615,4.28652 -5.60666,7.16709 -9.8886,5.80244 -6.73763,-1.54252 -12.84501,-6.90097 -20.11833,-5.08185 -12.31952,2.14038 -19.68304,16.29551 -16.42742,27.93626 2.21374,9.05267 10.37534,17.38525 20.18623,16.8859 6.35163,0.37036 11.45916,-3.88811 16.15626,-7.54379 3.43637,-2.75204 8.8593,-3.79188 12.17667,-0.28809 3.97683,4.62727 2.70962,11.1909 3.62345,16.70485 2.22116,1.09312 5.27769,0.10332 7.82476,0.26326 8.60194,-0.62211 17.29523,-0.45293 25.83627,-1.68694 5.96971,-1.05491 8.7112,-8.07921 14.77216,-8.72844 5.32338,-0.10829 10.02033,4.86368 10.45876,10.01337 0.45659,5.7481 -6.19042,8.89135 -6.13957,14.60029 -0.76923,9.80187 1.57847,19.45207 2.06002,29.18817 1.2262,1.68915 3.97624,0.41681 5.87184,1.10728 4.88575,0.61581 10.80089,3.21578 10.88928,8.95733 0.47184,8.65035 -6.82689,15.67537 -6.09362,24.35334 -0.29865,6.15057 5.00346,10.59288 9.52864,13.87067 7.4728,5.08043 17.85128,4.42986 25.24909,-0.47845 7.62034,-4.64275 12.07426,-14.37589 9.28704,-23.07752 -1.2917,-6.10605 -6.80873,-10.00934 -8.85239,-15.72243 -1.29301,-4.48712 1.51269,-9.42952 6.06273,-10.57362 6.63149,-2.06097 13.90995,-0.93011 20.43577,-3.37717 2.6488,-1.11666 2.89115,-4.18064 2.60952,-6.6676 -0.52221,-8.43711 -0.1,-17.01431 -1.73445,-25.33751 -1.15616,-5.36924 -7.02305,-7.95083 -8.58714,-13.04928 -1.07411,-5.26724 3.09378,-10.72026 8.52104,-10.83061 6.27287,-0.90298 13.07858,5.23833 10.89588,11.7313 -1.41376,3.86735 -4.49968,7.06362 -5.51786,11.05123 -0.376,10.26864 0.93305,20.52389 1.26632,30.72844 -0.7091,2.63639 1.79066,2.25783 3.47562,1.96252 9.34367,-0.50464 18.76068,-0.24496 28.09826,-1.12546 1.80338,-1.64324 0.22377,-4.95939 0.63546,-7.26494 -0.63436,-17.7654 -2.09106,-35.51287 -4.26487,-53.15013 -0.48748,-3.84878 0.43913,-8.3369 4.15908,-10.30158 5.23203,-2.87655 10.7554,0.79006 15.60261,2.72852 6.54948,2.91803 14.98489,3.10202 20.48701,-2.07737 7.05471,-6.49618 10.07766,-17.33933 6.53373,-26.39521 -2.91233,-8.51257 -11.20223,-16.16218 -20.68384,-15.01329 -7.11656,0.71727 -12.09224,6.52464 -18.59951,8.75638 -4.37851,1.42818 -8.6289,-1.90618 -9.74895,-6.04868 -1.94813,-7.92337 -2.17334,-16.20334 -3.22183,-24.30461 -1.26164,-12.05522 -1.81596,-24.10692 -2.17654,-36.23836 -0.46489,-1.60654 -2.60638,-0.46749 -3.76637,-0.62056 z m -72.83534,80.95064 c 5.72582,0.15049 9.83876,6.04611 9.30769,11.54124 0.40458,4.39813 -2.38755,7.8167 -4.84803,11.10329 -3.12058,4.02269 -1.5506,9.37323 -1.42027,14.01234 1.357,16.73488 5.92097,33.10553 5.79437,49.93039 -0.18062,2.37781 0.64966,5.12573 -0.30777,7.3259 -1.8084,0.39746 -3.69238,0.44111 -5.5033,0.87095 -3.14988,-16.26931 -2.53348,-33.03276 -4.16937,-49.53952 -0.8472,-8.3391 0.14085,-17.75159 -5.36591,-24.77053 -2.72904,-3.71242 -7.05251,-6.83236 -11.89787,-6.02582 -19.18353,1.58991 -57.54483,4.68065 -57.54483,4.68065 l -4.15926,0.53081 c 0.004,0.0715 -0.27387,-3.17612 -0.16113,-4.57701 -0.0161,0.0209 11.01152,-2.194 31.42436,-3.0329 11.13843,-0.85865 22.41654,-1.11404 33.37266,-3.44447 5.65199,-1.88261 9.18269,-8.44113 15.47866,-8.60532 z"
       id="path3"
       transform="translate(1.7670036,-0.21558233)"
       sodipodi:nodetypes="ccccccccccccccccccccccccccccccccccccccccccccccccccccccccccccccccccccccccccccccccc" /><path
       style="fill:#ff9955;stroke-width:0.423077"
       d="m 205.09976,256.64656 c -5.95753,0.54299 -11.93273,0.95281 -17.87252,1.66091 -1.86329,1.15396 -0.31218,3.816 -0.57347,5.57767 1.24349,11.95869 2.07518,24.07434 4.27603,35.85527 1.74845,1.31586 4.56463,0.58236 6.73631,1.05091 8.2364,1.0402 16.44366,-0.91425 24.64682,-1.49064 4.22444,-0.51328 8.4906,-0.81634 12.67986,-1.54955 1.61166,-1.51556 0.16889,-4.16032 0.47974,-6.1066 -0.74433,-8.75625 -0.69144,-17.63499 -2.31335,-26.28688 -1.28245,-4.80006 -6.68408,-6.35173 -9.65475,-9.8919 -4.12228,-0.5163 -8.45053,0.59264 -12.65146,0.69695 -1.91774,0.16129 -3.83547,0.32257 -5.75321,0.48386 z"
       id="path4"
       transform="translate(1.7670036,-0.21558233)" /><path
       style="fill:#ff9955;stroke-width:0.423077"
       d="m 230.21169,128.22784 c -2.82247,0.3822 -6.62871,-0.17973 -8.59127,2.31618 -0.69743,2.35187 2.33792,3.68771 3.67135,5.10832 2.52647,1.52786 4.37343,4.48956 7.31708,5.15956 2.57569,-1.23924 3.97047,-4.1572 5.97761,-6.10817 0.49303,-2.23735 -1.99404,-4.06114 -3.66969,-5.25459 -1.40895,-0.87794 -3.03912,-1.34556 -4.70508,-1.2213 z"
       id="path5"
       transform="translate(1.7670036,-0.21558233)" /><path
       style="fill:#000000"
       d="m 628.82488,440.32689 c -0.5256,-0.6875 -7.4432,-13.56147 -15.3724,-28.60882 -14.055,-26.67214 -18.4369,-33.2202 -23.951,-35.79069 -1.3562,-0.63223 -5.9445,-2.74334 -10.1961,-4.69136 -8.7749,-4.02046 -14.785,-9.56559 -20.9532,-19.33218 -4.2918,-6.79556 -11.9533,-14.29556 -20.7215,-20.28448 -8.3246,-5.68597 -20.3531,-16.60315 -22.345,-20.28053 -0.9625,-1.77691 -1.7562,-4.36276 -1.7637,-5.74634 -0.024,-4.38238 -1.12915,-6.66359 -3.3072,-7.23985 -2.58228,-0.68321 -3.24599,0.64425 -2.48649,1.56757 0.42829,0.52066 2.03211,4.87818 3.53019,7.90668 2.7036,5.34441 3.7767,8.86675 4.0826,13.40108 0.5129,7.6031 -0.8264,11.84511 -5.4424,17.23792 -5.0904,5.94704 -10.3419,8.35143 -19.4262,8.89434 -6.6519,0.39754 -8.2378,0.1329 -13.1614,-2.19636 -6.9873,-3.30553 -11.9153,-8.67214 -14.6328,-15.93514 -3.2109,-8.58192 -1.4764,-15.57221 6.0634,-24.43664 2.9611,-3.48132 3.6147,-7.29233 1.5439,-9.00291 -1.1884,-0.98174 -9.0507,-1.76387 -43.25,-4.3024 -8.25,-0.61237 -16.8,-1.42561 -19,-1.80718 l -4,-0.69376 0.2599,-9.95448 c 0.1429,-5.47496 0.4826,-10.55949 0.7548,-11.29895 0.2723,-0.73947 0.7063,-6.58947 0.9644,-13 0.8497,-21.10397 2.6245,-35.2591 4.6783,-37.31289 3.1629,-3.16286 7.9666,-2.33142 16.515,2.85842 6.5377,3.96914 8.5553,4.70866 12.9595,4.75 3.7675,0.0353 6.001,-0.52884 8.0422,-2.03153 4.2187,-3.10578 9.1158,-11.12134 10.4575,-17.11678 2.4353,-10.88202 -3.025,-22.13438 -12.8594,-26.49993 -3.8817,-1.72315 -4.6749,-1.76001 -9.6904,-0.45026 -3.0045,0.78457 -6.8606,2.42186 -8.5691,3.63841 -4.6971,3.34469 -9.8769,3.59045 -13.4003,0.63582 l -2.8877,-2.42148 1.1752,-14.85265 c 1.0179,-12.86427 4.775,-53.39466 5.0153,-54.10265 0.2019,-0.59506 14.6778,-0.15796 27.5848,0.83293 38.6927,2.97047 40.5,2.91776 40.5,-1.18113 0,-1.1153 -1.4062,-4.94359 -3.125,-8.50731 -2.478,-5.138071 -3.125,-7.776591 -3.125,-12.744931 0,-7.3892 1.7234,-11.34044 7.6088,-17.44512 5.2285,-5.42335 15.051,-8.81997 22.3433,-7.72641 10.4128,1.56149 19.4976,7.9688 22.9231,16.16712 3.2504,7.77931 0.7827,21.213871 -5.1039,27.786501 -3.8293,4.27561 -4.3697,6.61926 -1.9831,8.59996 1.4766,1.22547 7.0457,1.82076 47.213,5.04663 8.9382,0.71783 16.7906,1.63855 17.45,2.04604 2.2235,1.3742 -3.1511,69.25422 -5.6839,71.78708 -2.7861,2.78605 -15.71747,-2.5814 -16.08938,-2.82394 -1.88089,-1.22659 -0.57677,-0.26962 -2.91812,-1.72059 -2.45816,-1.52336 -9.8329,-3.58443 -14.0912,-2.78556 -9.6532,1.81094 -18.4329,17.54105 -15.483,27.73979 3.2188,11.12817 9.3223,16.7879 18.8259,17.457 4.9032,0.3452 6.2845,0.0312 9.4886,-2.15689 5.38306,-3.67612 4.44384,-2.67745 5.1388,-3.13822 2.91654,-1.93369 9.9546,-2.07347 13.05988,-0.0613 1.88774,1.22323 1.87097,3.13272 1.87097,3.13272 0.36844,0.19524 6.43035,2.20335 6.43035,2.20335 0.38832,-0.0725 14.20554,11.66898 14.9149,12.40236 3.3727,3.48693 10.6778,10.76986 16.2336,16.18429 5.5558,5.41443 9.99694,10.39959 10.10573,11 0.14912,0.12529 4.19329,12.6753 5.50157,18.59761 1.698,7.73406 2.26016,13.25793 3.06942,16.25709 0.49663,1.84053 0.4651,1.78527 0.4651,1.78527 0,0 0.046,-0.15302 2.54518,8.01561 3.35261,10.95811 8.9596,22.95619 14.6724,30.5 2.499,3.3 12.4633,13.78238 22.1428,23.29417 9.6796,9.51179 17.5993,17.65455 17.5993,18.09501 0,0.44046 -0.839,1.56007 -1.8643,2.48802 -1.7824,1.61299 -2.6726,0.88341 -20.25,-16.59502 -29.1872,-29.02288 -35.52099,-35.70455 -42.3515,-76.35244 -1.77615,-10.56975 -2.13429,-12.56347 -2.19077,-12.69621 -0.19939,-0.46853 -0.19565,-0.8418 -0.39503,-1.23353 l -3.0108,-6.2076 c -2.3886,-4.92476 -5.8448,-8.97336 -16.7245,-19.59089 -7.5425,-7.3608 -15.8455,-15.30699 -18.4511,-17.65819 -2.6056,-2.3512 -4.1088,-4.87828 -4.32381,-4.90217 0,-0.0348 -2.06339,-1.16904 -2.90189,-1.48871 -1.75786,-0.67016 -2.1946,1.61152 -3.0673,15.99886 -0.6646,10.95538 0.087,14.59261 5.0287,24.3452 2.6438,5.21728 3.3226,12.71439 1.5688,17.32727 -1.465,3.85318 -6.9935,9.59804 -11.3999,11.84603 -7.9523,4.05692 -28.44323,-2.09612 -28.44323,-2.09612 -0.95139,-0.41251 -1.12397,-0.16775 -8.09507,-4.49241 -5.17872,-3.21273 -12.1504,-4.98745 -16.6878,-4.13622 -2.8593,0.5364 -3.8836,1.36993 -5.0169,4.08234 -0.7833,1.87458 -1.4241,4.11706 -1.4241,4.98329 0,2.66554 8.8386,11.28798 23.7706,23.18935 7.8488,6.2558 15.6212,13.26998 17.2718,15.58706 9.8152,13.77808 14.7143,19.28932 19.0273,21.40492 1.3367,0.65564 5.8143,2.71606 9.9504,4.57873 10.8528,4.88754 13.9664,8.07264 20.5583,21.03092 3.1332,6.15906 7.3756,14.1233 9.4275,17.6983 9.1753,15.98556 16.9941,29.96969 16.9941,30.39432 0,0.7814 -3.0932,3.60568 -3.949,3.60568 -0.4434,0 -1.2362,-0.5625 -1.7618,-1.25 z M 499.04418,339.71191 c 6.2358,-2.83284 10.1122,-7.91609 10.8841,-14.27259 0.7331,-6.03678 0.071,-8.91194 -3.9072,-16.97768 -2.0005,-4.05559 -2.5802,-6.37098 -2.087,-8.33612 0.9703,-3.86574 4.9997,-7.54292 8.3061,-7.5799 1.5375,-0.0172 5.0455,-1.13809 7.7955,-2.49086 6.8009,-3.34547 9.4897,-3.12921 18.5609,1.4928 7.8147,3.98176 10.5276,4.55268 30.1469,6.34425 l 4.7079,0.4299 0.5259,-4.12241 c 0.5123,-4.01484 2.8616,-34.31668 4.1734,-53.82875 l 0.6526,-9.70634 -3.5819,0.989 c -1.97,0.54394 -5.9004,2.5493 -8.7342,4.45633 -6.7088,4.51468 -13.8689,4.80778 -21.7317,0.8896 -9.5509,-4.75942 -14.2693,-12.89488 -14.4644,-24.93966 -0.1076,-6.64031 0.2519,-8.17876 3.3119,-14.17363 4.9919,-9.77933 9.4929,-12.69951 20.2713,-13.15145 8.013,-0.33598 8.2696,-0.27261 13.5192,3.33843 6.5229,4.487 10.8834,6.1628 12.3139,4.73236 0.9888,-0.98877 3.985,-30.29797 5.3934,-52.75791 l 0.6916,-11.0296 -29.3783,-2.3132 c -19.4616,-1.53236 -30.4443,-2.81188 -32.5362,-3.79055 -6.482,-3.03265 -6.4861,-9.8136 -0.012,-19.2877 4.4506,-6.512511 5.855,-11.267851 4.7631,-16.127671 -1.4361,-6.39155 -5.4694,-11.57164 -11.3174,-14.53502 -4.7139,-2.3887 -5.9685,-2.59072 -13.0677,-2.10414 -5.1449,0.35264 -8.41907,1.000339 -9.76428,1.774327 0,0 -0.6944,-0.133963 -2.67892,1.943163 -1.03538,1.083695 -7.0047,8.5365 -7.7787,12.06038 -0.7157,3.2583 1.5901,12.22447 4.5766,17.796631 2.9155,5.43976 2.5519,10.17934 -1.0454,13.62575 l -2.982,2.85694 -20.268,-1.65074 c -11.1474,-0.90791 -25.2912,-1.93969 -31.4306,-2.29285 l -11.1627,-0.6421 -0.5593,5.37299 c -0.3076,2.95515 -0.8299,9.22198 -1.1607,13.92629 l -0.6014,8.5533 23.2344,1.74946 23.2344,1.74947 3.089,-3.45992 c 3.7895,-4.24462 6.75753,-4.38987 10.12807,-3.81892 0.71731,0.12151 0.466,-0.11129 3.67113,1.79625 11.16773,6.64651 1.788,23.26629 -9.9105,17.715 -1.9178,-0.91007 -3.9631,-2.69977 -4.5451,-3.9771 -1.3681,-3.00259 -1.5812,-3.05084 -19.2744,-4.36401 -8.2608,-0.61311 -18.4651,-1.44385 -22.6761,-1.84609 l -7.6565,-0.73134 -0.552,5.54029 c -0.3036,3.04715 -0.8404,9.92778 -1.1928,15.29028 l -0.6407,9.75 h 3.2146 c 1.768,0 4.409,-0.83117 5.8689,-1.84705 17.5176,-12.18965 41.1362,3.61196 38.8005,25.95879 -0.7473,7.14906 -2.5257,11.594 -7.1708,17.9218 -4.5637,6.21704 -10.1123,8.96646 -18.0953,8.96646 -5.0954,0 -6.7114,-0.48471 -10.8353,-3.25 -4.6566,-3.12244 -8.1608,-5.17753 -11.7058,-6.86514 -1.1463,-0.54565 -1.8633,-0.26372 -2.3136,0.90961 -0.772,2.01184 -2.4435,19.7022 -2.4917,26.37021 l -0.034,4.66468 7.25,0.52991 c 38.1479,2.78825 71.8025,4.72632 72.6779,4.18529 0.6093,-0.37653 1.0721,-3.91384 1.0721,-8.19329 0,-6.36707 -0.3148,-7.78723 -2.0375,-9.19098 -2.9438,-2.39872 -4.9553,-8.88241 -3.7915,-12.22103 4.0867,-11.7231 20.829,-8.58401 20.829,3.90532 0,2.80269 -1.798,5.15624 -7.9493,10.40542 -1.7754,1.5151 -2.0527,2.92449 -2.066,10.5 -0.01,4.8125 -0.3789,9.32298 -0.8234,10.02328 -0.8362,1.31766 -20.918,0.48579 -44.6613,-1.85005 -5.5,-0.54108 -16.6882,-1.43707 -24.8627,-1.99108 -8.1745,-0.554 -15.3745,-1.10288 -16,-1.21972 -1.2457,-0.23268 -2.969,25.24443 -1.7897,26.46035 0.8062,0.8314 17.5191,2.47344 42.9364,4.21849 17.8294,1.2241 19.47,1.49873 21.75,3.64066 3.5769,3.36031 3.3066,8.32736 -0.784,14.40623 -7.1685,10.65289 -7.9523,13.69147 -5.6607,21.94463 2.9779,10.72507 19.8163,17.02337 31.4193,11.75223 z m 82.9635,-45.35697 c 2.337,-3.95624 1.71692,-11.13938 0.1422,-14.9634 -0.40252,-0.97747 -0.84533,-3.17094 -0.84533,-3.17094 0,0 0.0394,-0.64373 -0.60227,-0.64373 -0.6711,0 -1.1914,1.59284 -1.2249,3.75 -0.032,2.0625 -0.2372,7.0125 -0.4557,11 -0.2186,3.9875 -0.064,7.25 0.3427,7.25 0.407,0 1.5965,-1.44987 2.6433,-3.22193 z m -80.8641,-59.52807 c 2.1785,-2.86971 1.693,-7.00675 -1.0317,-8.79203 -2.1851,-1.43173 -2.7149,-1.43764 -5.3789,-0.06 -3.5,1.80994 -4.5692,4.03868 -3.1815,6.63168 2.1286,3.97742 7.3422,5.18426 9.5921,2.22039 z m -19.5277,-80.96095 c 1.3449,-3.53741 0.20839,-5.88063 -1.31763,-7.89888 -0.45942,-0.60761 -1.66675,-0.93301 -2.28739,-0.92142 -2.21523,0.0413 -3.70598,0.75907 -5.19878,2.53127 -1.9753,2.34501 -1.0926,6.29449 1.7235,7.71208 3.8999,1.96309 5.9495,1.55114 7.0803,-1.42305 z"
       id="path7"
       sodipodi:nodetypes="cssssssssssssssssssscsssssssssssscssssssssssssssssssssssscsscsscsssssssscssscssssscsssssssssssscccssssssscsscssssssssscssssssssssscsscsscccssssssscsscssssssssccssssssscsssssssssccsscsssssssssssssssss" /><path
       style="fill:#8dd35f;stroke-width:0.353553"
       d="m 506.42656,69.984236 c -4.93865,0.264758 -10.14453,0.367963 -14.72564,2.400296 -4.12977,3.395677 -7.26708,7.954931 -9.70062,12.683038 -1.81552,4.205651 0.11172,8.831087 1.19394,12.975133 1.21726,4.826477 4.92363,9.090797 4.57617,14.247787 -0.20056,3.42735 -3.12932,5.90053 -5.59333,7.86795 -20.63949,-1.76955 -41.30568,-3.3186 -61.98854,-4.50505 -2.0022,0.62529 -1.11405,3.41834 -1.58864,5.06073 -0.62044,7.92061 -1.56967,15.89126 -1.76318,23.7983 1.15914,1.68988 3.99853,0.68847 5.83846,1.20434 13.73031,1.02669 27.46066,2.0528 41.19101,3.07881 2.45791,-1.22415 3.79506,-4.07834 6.05667,-5.71417 2.41575,-2.01537 6.15316,-2.10319 8.93275,-0.89079 3.435,1.61394 6.50576,4.84825 6.11054,8.90513 0.0146,5.70129 -5.92542,10.49089 -11.49809,8.88924 -3.46097,-0.64375 -5.62632,-3.54189 -7.6228,-6.15128 -2.44654,-2.12459 -6.09015,-1.58957 -9.08213,-2.15976 -12.79771,-1.04224 -25.57653,-2.19275 -38.38034,-3.09244 -1.54621,-0.39003 -2.70975,0.8294 -2.49835,2.35196 -0.87543,9.59788 -1.88251,19.21948 -2.21178,28.84361 1.10564,2.00375 3.89843,0.7344 5.71002,0.68501 4.99764,-1.05664 8.7317,-5.09429 13.95864,-5.49582 12.18642,-2.17945 24.37324,7.07467 27.32701,18.75268 3.19624,11.77536 -1.78902,25.07704 -11.20737,32.65812 -4.93233,3.54613 -11.47162,3.80103 -17.24747,3.05492 -5.01923,-1.62056 -8.96752,-5.36242 -13.69159,-7.68279 -1.96764,-0.903 -4.91346,-3.39389 -6.76133,-0.9917 -1.50093,4.41199 -1.43594,9.23582 -2.02725,13.83776 -0.47362,6.04757 -0.97819,12.1853 -0.57675,18.21573 1.23553,1.59785 3.98538,0.6168 5.82649,1.11501 24.1424,1.62863 48.27757,3.57381 72.46417,4.38256 1.94758,0.4495 3.78011,-0.34302 3.72958,-2.55825 0.50195,-4.59883 0.72747,-9.3688 -0.11118,-13.93083 -1.25157,-2.62707 -3.90897,-4.36395 -4.63555,-7.30999 -1.73286,-3.80303 -0.84118,-8.62619 2.60469,-11.16041 4.72845,-3.81611 12.84869,-1.80761 14.93211,4.02374 1.33471,2.92919 1.11659,6.63587 -1.39902,8.87267 -2.78397,3.41275 -7.67949,5.98313 -7.57033,10.96982 -0.21479,4.911 0.16987,9.90952 -0.99644,14.6773 -8.48959,0.75964 -16.99862,-0.19673 -25.47863,-0.61319 -18.94027,-1.49992 -37.89362,-3.12415 -56.84263,-4.50162 -1.34845,-0.30408 -3.28701,-0.33784 -3.53697,1.43841 -1.43003,7.47642 -1.70137,15.15332 -1.84204,22.75234 -0.23329,1.96983 0.77119,4.33854 3.02631,4.40014 15.92216,2.14841 31.99749,2.92171 48.0016,4.26703 4.3986,0.57665 9.03075,0.22945 13.14035,1.97126 2.46266,1.43113 3.70637,4.31484 3.1219,7.09869 -0.57773,5.51291 -4.92315,9.47454 -7.22213,14.31255 -2.57203,4.14447 -3.29037,9.28027 -1.71533,13.92125 1.76639,8.23413 9.75258,13.49535 17.56361,15.12621 9.56811,2.36025 21.18322,-1.66009 25.2895,-11.08493 2.60835,-6.24686 2.1705,-13.58723 -1.02517,-19.54511 -1.39634,-3.68326 -4.15618,-7.42205 -3.2279,-11.53673 1.25232,-3.70824 4.9003,-6.38037 8.79602,-6.4848 5.65847,-1.26876 10.94002,-5.6361 17.00094,-4.00165 7.2323,2.67931 14.07717,7.09284 21.98039,7.86311 6.53743,0.83703 13.10547,1.67939 19.68574,1.9915 2.7247,-0.14192 2.07293,-3.48693 2.42326,-5.32672 1.75617,-20.45628 3.50584,-40.92453 4.60569,-61.42651 0.60184,-2.13584 -1.53295,-2.70699 -3.11155,-1.92106 -7.38995,1.7728 -12.87603,8.55191 -20.81683,8.30298 -5.90825,0.23581 -11.46893,-2.68468 -15.96653,-6.16647 -5.97531,-4.8368 -8.30712,-12.84467 -8.28404,-20.18625 -0.27048,-4.46432 0.13521,-9.08351 2.52982,-12.98148 2.66266,-5.50223 6.49903,-11.32497 12.86948,-12.75692 4.91493,-0.97873 9.97487,-1.09069 14.87272,-0.72506 6.02267,2.43549 10.88388,8.06467 17.7122,8.31748 1.95095,-0.57003 1.55054,-3.31549 2.05678,-4.95741 2.58153,-19.49058 4.05755,-39.11792 5.20902,-58.73883 0.74903,-2.79825 -2.34616,-2.61145 -4.18837,-2.67495 -18.21587,-1.5269 -36.5189,-2.51808 -54.60784,-4.96787 -3.43608,-0.35768 -7.77174,-2.29763 -7.68978,-6.43509 -0.38773,-7.12826 5.33787,-12.36319 7.97773,-18.502167 2.54269,-4.854435 2.23284,-10.777081 -0.39315,-15.529557 -3.54119,-7.111105 -11.35261,-12.829321 -19.4887,-12.60694 z"
       id="path8"
       transform="translate(1.7670036,-0.21558233)" /></g></svg>
